<svg width="32" height="32" viewBox="0 0 32 32" fill="none" xmlns="http://www.w3.org/2000/svg">
    <circle cx="16" cy="16" r="15.5" stroke="#8055A0"></circle>
    <path d="M19.5169 15.0271C19.53 13.3453 18.1748 11.8024 16.4906 11.5893C16.4555 11.5847 16.4204 11.58 16.3809 11.5708C16.2976 11.5569 16.2099 11.543 16.1265 11.543C15.78 11.543 15.6879 11.7978 15.666 11.9507C15.6441 12.099 15.666 12.224 15.7318 12.3213C15.8458 12.4835 16.0476 12.5159 16.2099 12.5391C16.2581 12.5437 16.302 12.553 16.3371 12.5623C17.8458 12.919 18.3546 13.4796 18.6046 15.0596C18.609 15.0966 18.6134 15.1476 18.6178 15.1986C18.6265 15.3885 18.6528 15.7824 19.052 15.7824C19.0871 15.7824 19.1221 15.7777 19.1572 15.7731C19.53 15.7129 19.5169 15.3515 19.5125 15.18C19.5125 15.1291 19.5081 15.0874 19.5125 15.0549C19.5169 15.041 19.5169 15.0364 19.5169 15.0271Z" fill="#8055A0"></path>
    <path d="M16.0299 10.973C16.0738 10.9776 16.1176 10.9776 16.1527 10.9869C18.6352 11.39 19.7755 12.6317 20.0913 15.2726C20.0957 15.3189 20.0957 15.3745 20.1001 15.4301C20.1045 15.6386 20.1089 16.0649 20.5475 16.0742H20.5606C20.6966 16.0742 20.8062 16.0325 20.8852 15.9444C21.0211 15.7962 21.0124 15.5691 21.0036 15.3931C21.0036 15.3514 20.9992 15.3097 20.9992 15.2726C21.0255 12.5668 18.815 10.1159 16.258 10.0278C16.2492 10.0278 16.2361 10.0278 16.2273 10.0278C16.2229 10.0278 16.2141 10.0278 16.1966 10.0278C16.1703 10.0278 16.1396 10.0278 16.1089 10.0232C16.0694 10.0186 16.0211 10.0186 15.9773 10.0186C15.5694 10.0186 15.4948 10.3243 15.4817 10.505C15.4597 10.9267 15.8457 10.9545 16.0299 10.973Z" fill="#8055A0"></path>
    <path d="M19.9686 18.6827C19.9159 18.641 19.8633 18.5946 19.8107 18.5529C19.5387 18.3213 19.2537 18.1082 18.973 17.9043C18.9159 17.8626 18.8589 17.8209 18.8019 17.7746C18.4466 17.5105 18.1221 17.3807 17.8195 17.3807C17.4116 17.3807 17.0563 17.617 16.7624 18.0896C16.6309 18.2981 16.473 18.4001 16.28 18.4001C16.1659 18.4001 16.0344 18.363 15.8896 18.2981C14.7361 17.7468 13.9159 16.8989 13.4466 15.7823C13.2186 15.2402 13.2931 14.8881 13.6923 14.6008C13.9203 14.4387 14.3414 14.1329 14.3107 13.5537C14.2756 12.8958 12.8984 10.9082 12.3195 10.6858C12.0738 10.5885 11.8151 10.5885 11.5519 10.6858C10.8852 10.9221 10.4072 11.339 10.1659 11.8904C9.93349 12.4232 9.94665 13.0487 10.1966 13.6973C10.9203 15.5738 11.9379 17.214 13.223 18.5622C14.4817 19.8827 16.0256 20.9668 17.8151 21.7823C17.9773 21.8564 18.144 21.8935 18.2712 21.9259C18.3151 21.9352 18.3502 21.9445 18.3765 21.9537C18.3896 21.9584 18.4072 21.9584 18.4203 21.9584H18.4335C19.2756 21.9584 20.2844 21.1475 20.5958 20.2209C20.8633 19.4055 20.3677 19.0024 19.9686 18.6827Z" fill="#8055A0"></path>
    <path d="M16.4031 13.1181C16.2583 13.1227 15.9601 13.132 15.8548 13.4517C15.8066 13.6046 15.811 13.7343 15.8724 13.8409C15.9601 13.9984 16.1312 14.0447 16.2891 14.0725C16.8548 14.1698 17.1443 14.4988 17.2013 15.1103C17.2276 15.3976 17.4119 15.5968 17.6443 15.5968C17.6619 15.5968 17.6794 15.5968 17.6969 15.5922C17.9776 15.5551 18.1136 15.3374 18.1005 14.9436C18.1048 14.5312 17.8987 14.0632 17.5522 13.6926C17.2057 13.3173 16.7847 13.1042 16.4031 13.1181Z" fill="#8055A0"></path>
</svg>