<svg width="32" height="32" viewBox="0 0 32 32" fill="none" xmlns="http://www.w3.org/2000/svg">
    <circle cx="16" cy="16" r="15.5" stroke="#69A94B"></circle>
    <path d="M20.0692 16.5618C20.0388 16.5497 18.9518 16.0112 18.7575 15.9446C18.6785 15.9144 18.5935 15.8901 18.5024 15.8901C18.3566 15.8901 18.2291 15.9628 18.1319 16.108C18.0226 16.2714 17.6947 16.6526 17.5915 16.7675C17.5793 16.7857 17.5611 16.7978 17.549 16.7978C17.5368 16.7978 17.3728 16.7312 17.3182 16.707C16.1461 16.1987 15.2595 14.9825 15.138 14.7768C15.1198 14.7465 15.1198 14.7344 15.1198 14.7344C15.1259 14.7163 15.1623 14.68 15.1866 14.6618C15.2473 14.6013 15.3081 14.5287 15.3749 14.4501C15.4052 14.4137 15.4356 14.3774 15.4599 14.3472C15.551 14.2443 15.5874 14.1596 15.636 14.0689L15.6603 14.0204C15.7757 13.7966 15.6785 13.6029 15.6481 13.5424C15.6238 13.494 15.1623 12.3807 15.1137 12.2657C14.9983 11.9874 14.8404 11.8542 14.6218 11.8542C14.6036 11.8542 14.6218 11.8542 14.5368 11.8603C14.4336 11.8663 13.8749 11.939 13.6319 12.0902C13.3708 12.2536 12.9275 12.78 12.9275 13.6998C12.9275 14.5287 13.4558 15.3093 13.6805 15.6118C13.6866 15.6179 13.6987 15.636 13.7109 15.6542C14.5793 16.9188 15.6603 17.8567 16.7595 18.2923C17.8162 18.7098 18.3141 18.7582 18.5996 18.7582C18.721 18.7582 18.8121 18.7461 18.8971 18.7401L18.9518 18.734C19.3162 18.7038 20.1178 18.2863 20.3 17.7841C20.4457 17.3847 20.4822 16.949 20.385 16.7917C20.3243 16.6889 20.2149 16.6344 20.0692 16.5618Z" fill="#69A94B"></path>
    <path d="M16.614 8C12.5633 8 9.26577 11.2614 9.26577 15.267C9.26577 16.5619 9.61193 17.8326 10.2739 18.9399L9.01071 22.6491C8.98642 22.7156 9.00464 22.7943 9.05322 22.8487C9.08966 22.885 9.13824 22.9092 9.1929 22.9092C9.21112 22.9092 9.23541 22.9092 9.25363 22.9032L13.1342 21.6749C14.1969 22.2376 15.3994 22.5401 16.614 22.5401C20.6646 22.5401 23.9621 19.2787 23.9621 15.2731C23.9621 11.2553 20.6646 8 16.614 8ZM16.614 21.0214C15.4723 21.0214 14.3609 20.6946 13.4135 20.0714C13.3832 20.0532 13.3467 20.0411 13.3042 20.0411C13.286 20.0411 13.2617 20.0472 13.2435 20.0532L11.3002 20.6704L11.9257 18.8249C11.9439 18.7644 11.9378 18.6979 11.8953 18.6495C11.1727 17.6632 10.784 16.4954 10.784 15.2791C10.784 12.1085 13.3953 9.52481 16.6079 9.52481C19.8204 9.52481 22.4257 12.1085 22.4257 15.2791C22.4318 18.4377 19.8204 21.0214 16.614 21.0214Z" fill="#69A94B"></path>
</svg>