<svg width="230" height="15" viewBox="0 0 230 15" fill="none" xmlns="http://www.w3.org/2000/svg">
<path d="M24.1173 14.9994H3.52667C1.17556 14.9994 0 13.7863 0 11.3602V3.59099C0 1.22869 1.17556 0.0475488 3.52667 0.0475488H24.1173V3.01637H4.19613C3.40712 3.01637 3.01261 3.39945 3.01261 4.1656V10.8095C3.01261 11.6236 3.39118 12.0306 4.14832 12.0306H24.1173V14.9994Z" fill="url(#paint0_linear)"/>
<path d="M54.292 14.9755H51.2674V10.1631H31.9054V14.9755H28.9286V3.72267C28.9286 1.24865 30.1281 0.0116356 32.527 0.0116356H50.6817C53.0886 0.0116356 54.292 1.26062 54.292 3.75858V14.9755ZM31.9054 7.17034H51.2674V4.20151C51.2674 3.41142 50.869 3.01637 50.072 3.01637H33.1008C32.3038 3.01637 31.9054 3.42339 31.9054 4.23742V7.17034Z" fill="url(#paint1_linear)"/>
<path d="M83.4418 14.9994H79.7956L76.1852 10.199H62.101V14.9994H59.0764L59.1123 0.0355777H79.8554C82.2224 0.0355777 83.406 1.21273 83.406 3.56704V6.63164C83.406 9.00989 82.1985 10.199 79.7836 10.199L83.4418 14.9994ZM79.1381 3.01637H62.101V7.23019H79.2337C80.0227 7.23019 80.4212 6.80721 80.4292 5.96126L80.4531 4.22545C80.4611 3.4194 80.0227 3.01637 79.1381 3.01637Z" fill="url(#paint2_linear)"/>
<path d="M112.636 14.9994H88.3694V0.0355777H91.3701V12.0186H112.636V14.9994Z" fill="url(#paint3_linear)"/>
<path d="M139.047 10.8335V4.28531C139.047 3.44733 138.648 3.02835 137.851 3.02835H121.904C121.107 3.02835 120.708 3.4194 120.708 4.20151V10.7976C120.708 11.6116 121.107 12.0186 121.904 12.0186H137.875C138.656 12.0186 139.047 11.6236 139.047 10.8335ZM121.27 14.9994C118.879 14.9994 117.684 13.7983 117.684 11.3961V3.63887C117.684 1.24466 118.867 0.0475488 121.234 0.0475488H138.389C140.82 0.0475488 142.036 1.27259 142.036 3.72267V11.468C142.036 13.7983 140.86 14.9635 138.509 14.9635L121.27 14.9994Z" fill="url(#paint4_linear)"/>
<path d="M171.365 11.3246C171.365 13.7747 170.146 14.9998 167.707 14.9998L147.025 14.9999L147.061 12.0311L167.181 12.0309C167.97 12.0309 168.372 11.6638 168.388 10.9296L168.4 10.1994C168.416 9.40926 168.006 9.01422 167.169 9.01422L150.647 9.01437C148.232 9.01437 147.025 7.89308 147.025 5.6505V3.6633C147.025 1.23716 148.208 0.024094 150.576 0.024094L171.365 0V3.00474L151.209 3.00489C150.42 3.00489 150.026 3.40393 150.026 4.202V4.80055C150.026 5.61459 150.412 6.0216 151.185 6.0216L167.707 6.02145C170.146 6.02145 171.365 7.20259 171.365 9.56489V11.3246Z" fill="url(#paint5_linear)"/>
<path d="M197.842 10.8335V4.28531C197.842 3.44733 197.444 3.02835 196.647 3.02835H180.586C179.789 3.02835 179.39 3.4194 179.39 4.20151V10.7976C179.39 11.6116 179.789 12.0186 180.586 12.0186H196.671C197.452 12.0186 197.842 11.6236 197.842 10.8335ZM179.952 14.9994C177.561 14.9994 176.366 13.7983 176.366 11.3961V3.63887C176.366 1.24466 177.549 0.0475488 179.916 0.0475488H197.185C199.616 0.0475488 200.831 1.27259 200.831 3.72267V11.468C200.831 13.7983 199.656 14.9635 197.304 14.9635L179.952 14.9994Z" fill="url(#paint6_linear)"/>
<path d="M226.975 14.9641H230V0.0481305H226.987L226.999 11.4566L208.694 0.0122174H205.694L205.729 15H208.718V3.47186L226.975 14.9641Z" fill="url(#paint7_linear)"/>
<defs>
<linearGradient id="paint0_linear" x1="3.13594" y1="5.23137" x2="233.317" y2="15.1366" gradientUnits="userSpaceOnUse">
<stop stop-color="#E8B98B"/>
<stop offset="1" stop-color="#825B4D"/>
</linearGradient>
<linearGradient id="paint1_linear" x1="3.13594" y1="5.23137" x2="233.317" y2="15.1366" gradientUnits="userSpaceOnUse">
<stop stop-color="#E8B98B"/>
<stop offset="1" stop-color="#825B4D"/>
</linearGradient>
<linearGradient id="paint2_linear" x1="3.13594" y1="5.23137" x2="233.317" y2="15.1366" gradientUnits="userSpaceOnUse">
<stop stop-color="#E8B98B"/>
<stop offset="1" stop-color="#825B4D"/>
</linearGradient>
<linearGradient id="paint3_linear" x1="3.13594" y1="5.23137" x2="233.317" y2="15.1366" gradientUnits="userSpaceOnUse">
<stop stop-color="#E8B98B"/>
<stop offset="1" stop-color="#825B4D"/>
</linearGradient>
<linearGradient id="paint4_linear" x1="3.13594" y1="5.23137" x2="233.317" y2="15.1366" gradientUnits="userSpaceOnUse">
<stop stop-color="#E8B98B"/>
<stop offset="1" stop-color="#825B4D"/>
</linearGradient>
<linearGradient id="paint5_linear" x1="3.13594" y1="5.23137" x2="233.317" y2="15.1366" gradientUnits="userSpaceOnUse">
<stop stop-color="#E8B98B"/>
<stop offset="1" stop-color="#825B4D"/>
</linearGradient>
<linearGradient id="paint6_linear" x1="3.13594" y1="5.23137" x2="233.317" y2="15.1366" gradientUnits="userSpaceOnUse">
<stop stop-color="#E8B98B"/>
<stop offset="1" stop-color="#825B4D"/>
</linearGradient>
<linearGradient id="paint7_linear" x1="3.13594" y1="5.23137" x2="233.317" y2="15.1366" gradientUnits="userSpaceOnUse">
<stop stop-color="#E8B98B"/>
<stop offset="1" stop-color="#825B4D"/>
</linearGradient>
</defs>
</svg>
